<?xml version="1.0" encoding="UTF-8" standalone="no"?>
<!-- Created with Inkscape (http://www.inkscape.org/) -->

<svg
   width="1063.6489"
   height="166.00003"
   viewBox="0 0 1063.6489 166.00004"
   version="1.1"
   id="svg1"
   inkscape:version="1.3 (0e150ed6c4, 2023-07-21)"
   sodipodi:docname="editor.svg"
   xmlns:inkscape="http://www.inkscape.org/namespaces/inkscape"
   xmlns:sodipodi="http://sodipodi.sourceforge.net/DTD/sodipodi-0.dtd"
   xmlns="http://www.w3.org/2000/svg"
   xmlns:svg="http://www.w3.org/2000/svg">
  <sodipodi:namedview
     id="namedview1"
     pagecolor="#505050"
     bordercolor="#eeeeee"
     borderopacity="1"
     inkscape:showpageshadow="0"
     inkscape:pageopacity="0"
     inkscape:pagecheckerboard="0"
     inkscape:deskcolor="#505050"
     inkscape:document-units="px"
     inkscape:zoom="0.57014592"
     inkscape:cx="769.10136"
     inkscape:cy="194.687"
     inkscape:window-width="1600"
     inkscape:window-height="829"
     inkscape:window-x="-8"
     inkscape:window-y="-8"
     inkscape:window-maximized="1"
     inkscape:current-layer="layer1" />
  <defs
     id="defs1" />
  <g
     inkscape:label="Layer 1"
     inkscape:groupmode="layer"
     id="layer1"
     transform="translate(-337.27293,-1639.1338)">
    <path
       style="font-weight:bold;font-size:231.844px;line-height:0.9;font-family:'Neo Gothic';-inkscape-font-specification:'Neo Gothic Bold';letter-spacing:0px;text-orientation:upright;stroke-width:7.99009;fill:#000624;fill-opacity:1"
       d="m 428.84415,1645.8303 v 38.7179 q -7.41901,-9.2737 -17.3883,-14.3743 -9.9693,-5.1006 -20.86596,-5.1006 -10.43298,0 -16.69277,4.6369 -6.02794,4.6369 -6.02794,12.2878 0,7.419 5.56425,12.5195 5.56426,4.8688 13.91064,9.0419 8.34638,4.1732 17.85199,8.5783 9.73745,4.405 18.08383,10.6648 8.34638,6.0279 13.91064,14.838 5.56426,8.8101 5.56426,22.0252 0,11.1285 -4.1732,19.9386 -3.94134,8.81 -11.12851,15.0698 -7.18716,6.2598 -17.15645,9.7375 -9.73745,3.2458 -21.09781,3.2458 -8.57823,0 -16.92461,-1.6229 -8.11454,-1.6229 -14.14248,-3.4777 -8.11454,-2.5503 -13.21511,-2.5503 -3.7095,0 -5.56426,0.9274 l -2.55028,0.9274 v -39.1816 q 9.27376,10.2011 22.02518,15.7654 12.98326,5.5642 26.19837,5.5642 14.37433,0 21.79334,-6.2598 7.65085,-6.2598 7.65085,-15.9972 0,-8.8101 -5.56426,-14.3743 -5.56425,-5.7961 -13.91064,-10.2012 -8.34638,-4.6369 -18.08383,-9.0419 -9.5056,-4.405 -17.85199,-10.2011 -8.34638,-5.7961 -13.91064,-13.9107 -5.56425,-8.1145 -5.56425,-20.6341 0,-9.5056 3.47766,-17.1564 3.47766,-7.8827 9.73745,-13.2151 6.25978,-5.5643 14.83801,-8.5783 8.57823,-3.0139 18.54752,-3.0139 6.72348,0 13.44695,1.1592 6.72348,1.1592 11.36036,2.7821 3.24581,1.1592 5.7961,1.6229 2.78213,0.4637 4.86872,0.4637 2.55029,0 4.63688,-0.6955 z m 174.34712,149.7712 q 1.15922,2.7821 2.55028,5.1006 1.39106,2.3184 3.94135,4.8687 h -36.63135 q 2.55028,-4.405 0,-10.433 l -12.98327,-31.5308 h -62.82972 l -12.98326,31.5308 q -2.55029,6.028 0,10.433 h -36.39951 q 2.31844,-2.5503 3.7095,-4.8687 1.39107,-2.3185 2.55029,-5.1006 L 519.72743,1643.28 h 17.85199 z m -52.1649,-53.7878 -22.25703,-54.0196 -22.48886,54.0196 z m 113.14012,63.7571 -65.61185,-152.3215 q -1.15922,-2.7821 -2.55028,-5.1006 -1.39107,-2.3184 -3.70951,-4.8687 h 37.79057 q -2.31844,4.405 0,9.9693 l 43.12299,103.6343 42.89114,-103.6343 q 2.55028,-5.7961 0,-9.9693 h 38.02241 q -2.55028,2.5503 -3.94135,4.8687 -1.39106,2.3185 -2.55028,5.1006 l -65.61185,152.3215 z"
       id="text1"
       aria-label="SAV"
       transform="scale(1.001398,0.99860397)" />
    <path
       style="font-size:222.222px;line-height:0.9;font-family:'Sav Madeby Display';-inkscape-font-specification:'Sav Madeby Display';letter-spacing:0px;text-orientation:upright;stroke-width:7.6585;fill:#000624;fill-opacity:1"
       d="M 907.14448,1801.5782 H 802.03347 v -158.8888 h 105.11101 v 15.1111 h -87.99991 v 128.6666 h 87.99991 z m -4.22222,-73.7777 h -85.99991 v -15.1111 h 85.99991 z m 139.33334,73.7777 h -16.2222 v -29.7778 l -0.2222,-0.2222 v -21.3333 q 0,-14 -5.1111,-24.4444 -5.1111,-10.6667 -14.4445,-16.6667 -9.1111,-6 -21.11105,-6 -11.77777,0 -20.88887,5.7778 -9.1111,5.5555 -14.22221,15.5555 -5.1111,9.7778 -5.1111,22.4444 0,12.6667 5.1111,22.6667 5.33333,9.7778 14.44443,15.5555 9.33333,5.5556 21.33332,5.5556 11.33328,0 20.44438,-4.6667 9.3334,-4.6666 15.1111,-12.8889 5.7778,-8.4444 6.6667,-18.8888 l 3.1111,4.4444 q 1.7777,13.1111 -4,23.7778 -5.7778,10.4444 -17.1111,16.6666 -11.1111,6 -25.99996,6 -16.44443,0 -29.3333,-7.5555 -12.66666,-7.5556 -19.99998,-20.6667 -7.11111,-13.1111 -7.11111,-30 0,-16.6666 7.11111,-29.7777 7.33332,-13.1111 19.77775,-20.6667 12.66666,-7.7777 28.66664,-7.7777 11.99995,0 21.77775,4.6666 10,4.4445 16.6667,12.6667 6.6666,8.2222 8.4444,19.3333 h -4.2222 v -83.7777 h 16.4444 z m 47.5553,0 h -16.4444 v -109.3333 h 16.4444 z m -8.2222,-138.6666 q -4.8889,0 -8.4444,-3.3333 -3.5556,-3.5556 -3.5556,-8.4444 0,-5.1111 3.5556,-8.4445 3.5555,-3.5555 8.4444,-3.5555 5.1111,0 8.4445,3.5555 3.5555,3.3334 3.5555,8.4445 0,4.8888 -3.5555,8.4444 -3.3334,3.3333 -8.4445,3.3333 z m 103.1112,138.6666 h -25.7778 q -11.5555,0 -17.9999,-6.2223 -6.2223,-6.4444 -6.2223,-17.9999 v -117.111 h 16.4445 v 115.7776 q 0,5.3334 2.8889,8.4445 2.8888,2.8888 8.4444,2.8888 h 22.2222 z m -1.5556,-95.3333 h -71.111 v -14 h 71.111 z m 75.3333,98.8888 q -16.6667,0 -29.7778,-7.5555 -13.1111,-7.5556 -20.6666,-20.6667 -7.3333,-13.1111 -7.3333,-30 0,-16.8888 7.3333,-29.9999 7.5555,-13.1111 20.6666,-20.6667 13.1111,-7.5555 29.7778,-7.5555 16.8889,0 29.7777,7.5555 13.1111,7.5556 20.4445,20.6667 7.5555,13.1111 7.5555,29.9999 0,16.8889 -7.5555,30 -7.3334,13.1111 -20.4445,20.6667 -12.8888,7.5555 -29.7777,7.5555 z m 0,-14.4444 q 12,0 21.1111,-5.5556 9.1111,-5.5555 14.2222,-15.3333 5.1111,-10 5.1111,-22.8889 0,-12.8888 -5.1111,-22.6666 -5.1111,-10 -14.2222,-15.5555 -9.1111,-5.5556 -21.1111,-5.5556 -12,0 -21.1111,5.5556 -9.1111,5.5555 -14.2222,15.5555 -5.1111,9.7778 -5.1111,22.6666 0,12.8889 5.1111,22.8889 5.1111,9.7778 14.2222,15.3333 9.1111,5.5556 21.1111,5.5556 z m 142.4443,-100.2221 v 15.9999 h -4.4444 q -9.7778,0 -18.4444,5.1111 -8.6667,5.1112 -14,16 -5.3333,10.8889 -5.3333,28.2222 v 45.7778 h -16.4445 v -109.3333 h 16.2222 v 34.6667 h -2.8888 q 2.6666,-13.3334 9.3333,-21.3333 6.6666,-8 15.3333,-11.5556 8.8889,-3.5555 18.2222,-3.5555 z"
       id="text2"
       aria-label="Editor" />
  </g>
</svg>
