<?xml version="1.0" encoding="UTF-8" standalone="no"?>
<!-- Created with Inkscape (http://www.inkscape.org/) -->

<svg
   width="600"
   height="600"
   viewBox="0 0 600 600.00002"
   version="1.1"
   id="svg1"
   inkscape:version="1.3 (0e150ed6c4, 2023-07-21)"
   sodipodi:docname="wledig-light.svg"
   xml:space="preserve"
   xmlns:inkscape="http://www.inkscape.org/namespaces/inkscape"
   xmlns:sodipodi="http://sodipodi.sourceforge.net/DTD/sodipodi-0.dtd"
   xmlns="http://www.w3.org/2000/svg"
   xmlns:svg="http://www.w3.org/2000/svg"><sodipodi:namedview
     id="namedview1"
     pagecolor="#505050"
     bordercolor="#eeeeee"
     borderopacity="1"
     inkscape:showpageshadow="0"
     inkscape:pageopacity="0"
     inkscape:pagecheckerboard="0"
     inkscape:deskcolor="#505050"
     inkscape:document-units="px"
     inkscape:zoom="0.80630809"
     inkscape:cx="263.5469"
     inkscape:cy="323.69761"
     inkscape:window-width="1600"
     inkscape:window-height="829"
     inkscape:window-x="-8"
     inkscape:window-y="-8"
     inkscape:window-maximized="1"
     inkscape:current-layer="layer1" /><defs
     id="defs1" /><g
     inkscape:label="Layer 1"
     inkscape:groupmode="layer"
     id="layer1"
     transform="translate(-213.98032,-1275.1122)"><path
       style="fill:#000000"
       id="path2" /><path
       id="path6"
       style="fill:#ffffff;fill-opacity:1;stroke:none;stroke-width:25.4587;stroke-dasharray:none;stroke-opacity:1"
       d="M 513.98032 1275.1122 A 300 300 0 0 0 213.98032 1575.1122 A 300 300 0 0 0 513.98032 1875.1122 A 300 300 0 0 0 813.98032 1575.1122 A 300 300 0 0 0 513.98032 1275.1122 z M 564.35336 1374.7997 C 564.68819 1374.7949 565.01721 1374.8185 565.28891 1374.9325 C 563.52225 1376.2419 561.8248 1377.6558 560.17953 1379.1298 C 558.53427 1380.6037 556.94088 1382.1379 555.38852 1383.6903 C 553.66027 1385.4186 551.97569 1387.2024 550.35727 1389.0458 C 548.73884 1390.8892 547.18787 1392.7921 545.72836 1394.7606 C 544.26886 1396.7292 542.89978 1398.7624 541.64828 1400.8661 C 540.39679 1402.9698 539.26181 1405.1445 538.26743 1407.3934 C 537.79732 1408.4567 537.35428 1409.5467 536.95102 1410.6571 C 536.54776 1411.7675 536.18404 1412.8982 535.87289 1414.0419 C 535.56174 1415.1855 535.30299 1416.3418 535.10922 1417.5048 C 534.91546 1418.6677 534.78729 1419.8364 534.73618 1421.0048 C 534.65071 1422.9576 534.74758 1424.9017 535.0018 1426.8251 C 535.25602 1428.7485 535.66721 1430.6525 536.21469 1432.5243 C 536.61449 1433.891 537.10991 1435.2482 537.70297 1436.5614 C 538.29604 1437.8746 538.98663 1439.1426 539.77719 1440.329 C 540.70439 1441.7205 541.72562 1443.051 542.86118 1444.2723 C 543.42895 1444.883 544.02668 1445.4663 544.65414 1446.0165 C 545.28161 1446.5666 545.94044 1447.0837 546.63266 1447.5614 C 547.33441 1448.0457 548.07002 1448.4907 548.83578 1448.8954 C 549.60155 1449.3001 550.39645 1449.665 551.21274 1449.9911 C 552.84532 1450.6432 554.56646 1451.1382 556.32016 1451.4813 C 558.07386 1451.8245 559.85995 1452.0158 561.6268 1452.0575 C 563.39365 1452.0992 565.14031 1451.9913 566.81235 1451.7391 C 567.94169 1451.5688 568.99985 1451.2342 569.93149 1450.7528 C 570.39731 1450.5121 570.83101 1450.234 571.22641 1449.9227 C 571.62181 1449.6114 571.97987 1449.2666 572.29086 1448.8895 C 572.60186 1448.5124 572.86733 1448.1031 573.07993 1447.6649 C 573.29252 1447.2268 573.45238 1446.7589 573.55258 1446.2645 C 573.65278 1445.7701 573.69205 1445.2499 573.66586 1444.704 C 573.63967 1444.1581 573.54728 1443.5876 573.38071 1442.995 C 574.21308 1442.995 575.04672 1443.0487 575.8768 1443.1454 C 576.70688 1443.2421 577.53397 1443.381 578.35532 1443.5536 C 579.99802 1443.8987 581.61619 1444.3758 583.18539 1444.8993 C 584.29579 1445.2698 585.40639 1445.6881 586.50961 1446.1532 C 587.61283 1446.6183 588.70949 1447.1296 589.79086 1447.6844 C 590.87223 1448.2393 591.93742 1448.8379 592.98227 1449.4774 C 594.02712 1450.1169 595.05112 1450.7972 596.04477 1451.5165 C 597.03842 1452.2357 598.00175 1452.9939 598.92953 1453.788 C 599.85732 1454.582 600.75027 1455.4124 601.5975 1456.2762 C 602.44474 1457.1401 603.24783 1458.037 603.99985 1458.9657 C 604.75186 1459.8944 605.45148 1460.8541 606.0936 1461.8427 C 606.97938 1463.2064 607.72242 1464.6863 608.41977 1466.2059 C 609.11712 1467.7256 609.76948 1469.2848 610.47446 1470.8055 C 611.17943 1472.3263 611.93691 1473.8097 612.84555 1475.1766 C 613.29987 1475.8601 613.79183 1476.5138 614.33383 1477.1298 C 614.87583 1477.7457 615.46871 1478.3233 616.12289 1478.8524 C 616.89866 1479.48 617.78512 1479.925 618.69321 1480.3231 C 619.42309 1480.6433 620.19566 1480.8426 620.97641 1480.995 C 621.53726 1481.1053 622.11879 1481.2225 622.69125 1481.1395 C 623.15102 1481.0733 623.55706 1480.9289 623.91782 1480.7235 C 624.27857 1480.5181 624.59341 1480.2515 624.86703 1479.9364 C 625.14066 1479.6213 625.37376 1479.2576 625.57211 1478.8622 C 625.77046 1478.4668 625.93326 1478.0388 626.06821 1477.5927 C 626.3381 1476.7003 626.4944 1475.7363 626.58188 1474.8173 C 626.66936 1473.8982 626.6893 1473.0235 626.6893 1472.3134 C 627.53218 1472.6643 628.35321 1473.0786 629.15219 1473.5399 C 629.95117 1474.0013 630.72808 1474.5112 631.48227 1475.0536 C 632.99065 1476.1384 634.40832 1477.3557 635.73227 1478.5887 C 637.37579 1480.1197 638.88056 1481.777 640.25375 1483.536 C 641.62694 1485.2951 642.86807 1487.1551 643.98032 1489.0927 C 645.09256 1491.0302 646.07666 1493.0456 646.93735 1495.1122 C 647.79804 1497.1788 648.53563 1499.2981 649.15414 1501.4442 C 649.80404 1503.6992 650.36475 1505.9771 650.80258 1508.2782 C 651.24042 1510.5793 651.5542 1512.9032 651.71469 1515.2469 C 651.9408 1518.5526 651.96807 1521.891 651.93735 1525.2333 C 651.90662 1528.5756 651.81821 1531.9218 651.81821 1535.2372 L 651.81821 1580.8329 C 656.04583 1580.0364 660.29354 1579.3254 664.52524 1578.5399 C 666.64109 1578.1472 668.75333 1577.7362 670.85727 1577.286 C 672.96121 1576.8358 675.05706 1576.3474 677.14047 1575.7997 C 681.09524 1574.7598 685.00465 1573.5086 688.89828 1572.202 C 692.79192 1570.8954 696.66858 1569.5336 700.55649 1568.2684 C 699.15587 1572.5662 697.65406 1576.8513 696.10532 1581.12 C 694.55658 1585.3887 692.96204 1589.6418 691.37875 1593.8759 C 690.5289 1596.1489 689.72755 1598.4431 688.91391 1600.7294 C 688.80526 1601.0347 688.56036 1601.5192 688.36508 1602.0067 C 688.1698 1602.4942 688.02408 1602.9848 688.11899 1603.2997 C 688.25639 1603.7553 688.77655 1604.1829 689.07993 1604.536 C 689.8715 1605.4575 690.67093 1606.373 691.45883 1607.2977 C 694.47129 1610.8335 697.51459 1614.3436 700.54477 1617.8641 C 701.41882 1618.8796 702.29901 1619.8892 703.16782 1620.9091 C 703.36578 1621.1413 703.59938 1621.3739 703.80453 1621.6219 C 704.00969 1621.87 704.18572 1622.1336 704.26938 1622.4325 C 701.76781 1623.4738 699.31216 1624.5967 696.84164 1625.6864 C 694.37113 1626.7761 691.8856 1627.8332 689.32407 1628.745 C 687.8796 1629.2588 686.41284 1629.7289 684.94516 1630.1708 C 684.64949 1630.2598 684.26884 1630.3218 683.91 1630.4247 C 683.55117 1630.5275 683.21505 1630.6705 683.00766 1630.9188 C 682.7373 1631.2423 682.52482 1631.6659 682.33774 1632.1044 C 682.15066 1632.5428 681.98933 1632.9957 681.81821 1633.3798 C 681.08641 1635.0219 680.3399 1636.6585 679.67172 1638.329 C 678.62246 1640.9519 677.62567 1643.5917 676.69711 1646.2548 C 675.76856 1648.9178 674.90937 1651.6057 674.13461 1654.3231 C 673.64832 1656.0285 673.28804 1657.8837 672.79086 1659.6825 C 672.54228 1660.5819 672.25792 1661.4668 671.90805 1662.3114 C 671.55819 1663.156 671.1417 1663.9605 670.62485 1664.6981 C 670.02714 1665.5511 669.32727 1666.3189 668.55258 1667.0087 C 667.7779 1667.6985 666.92848 1668.3107 666.0311 1668.8505 C 665.13372 1669.3902 664.18829 1669.8578 663.2225 1670.2606 C 662.25672 1670.6634 661.27077 1671.0012 660.29086 1671.2802 C 658.92147 1671.6699 657.51539 1671.9849 656.09555 1672.2098 C 654.67571 1672.4348 653.24164 1672.569 651.81821 1672.5985 C 651.81821 1674.4445 651.84653 1676.2915 651.84555 1678.1337 C 651.84457 1679.9758 651.81505 1681.8142 651.69907 1683.6395 C 651.58309 1685.4648 651.37999 1687.2777 651.035 1689.0731 C 650.69001 1690.8685 650.20348 1692.6449 649.51547 1694.3973 C 649.06393 1695.5475 648.55831 1696.6518 648.00571 1697.7137 C 647.4531 1698.7757 646.85199 1699.7964 646.20883 1700.7802 C 645.56568 1701.7639 644.88125 1702.7103 644.15805 1703.6259 C 643.43485 1704.5414 642.67343 1705.4267 641.88071 1706.2841 C 640.29525 1707.9988 638.58161 1709.6056 636.7811 1711.1473 C 634.98058 1712.6891 633.09345 1714.1655 631.16196 1715.6141 C 628.8666 1717.3357 626.53643 1719.0062 624.17172 1720.6259 C 621.80701 1722.2455 619.40843 1723.8148 616.97836 1725.3329 C 614.5483 1726.8509 612.08503 1728.3166 609.5936 1729.7333 C 607.10217 1731.15 604.58185 1732.5173 602.03305 1733.8329 C 599.74154 1735.0156 597.42909 1736.1523 595.09555 1737.243 C 592.76202 1738.3338 590.40708 1739.3783 588.035 1740.3759 C 585.66293 1741.3734 583.27221 1742.3244 580.86508 1743.2274 C 578.45796 1744.1305 576.03424 1744.9846 573.59555 1745.7919 C 571.15686 1746.5991 568.70294 1747.359 566.23618 1748.0692 C 563.76941 1748.7794 561.29003 1749.4418 558.79868 1750.0536 C 556.30733 1750.6654 553.80526 1751.2269 551.29282 1751.7391 C 548.78037 1752.2513 546.25842 1752.7126 543.72836 1753.1239 C 541.19831 1753.5352 538.65926 1753.8968 536.11508 1754.2059 C 533.5709 1754.515 531.02145 1754.7718 528.46664 1754.9774 C 525.91183 1755.183 523.35282 1755.3375 520.79086 1755.4384 C 518.22891 1755.5392 515.66311 1755.5861 513.0975 1755.5809 C 510.53189 1755.5757 507.96601 1755.5177 505.40024 1755.4052 C 502.83446 1755.2926 500.26933 1755.1263 497.70688 1754.9052 C 495.14442 1754.684 492.58479 1754.4081 490.02914 1754.077 C 487.4735 1753.746 484.92215 1753.3591 482.3768 1752.9169 C 478.0656 1752.1678 473.79595 1751.2647 469.57016 1750.2177 C 465.34437 1749.1706 461.162 1747.9806 457.02133 1746.6552 C 452.88066 1745.3297 448.78225 1743.8703 444.72641 1742.286 C 440.67057 1740.7017 436.65671 1738.9923 432.68539 1737.1688 C 429.55531 1735.7315 426.4609 1734.2007 423.4061 1732.5829 C 420.35129 1730.965 417.33614 1729.2603 414.36899 1727.4774 C 411.40184 1725.6946 408.48219 1723.8335 405.61508 1721.9012 C 402.74797 1719.969 399.93422 1717.9653 397.17953 1715.8993 C 395.37172 1714.5434 393.58332 1713.1574 391.85922 1711.7079 C 390.13512 1710.2584 388.47529 1708.7462 386.92368 1707.1395 C 385.37206 1705.5329 383.92889 1703.8321 382.63852 1702.0048 C 381.99333 1701.0911 381.38534 1700.1457 380.82211 1699.1649 C 380.25888 1698.1842 379.73956 1697.168 379.26938 1696.1122 C 378.58678 1694.5795 377.99654 1693.0091 377.51938 1691.4052 C 377.04222 1689.8012 376.67934 1688.1629 376.45493 1686.4969 C 376.14734 1684.2138 376.06945 1681.8898 376.06821 1679.5614 C 376.06697 1677.233 376.14243 1674.8999 376.14243 1672.5985 C 374.71905 1672.5692 373.2849 1672.4349 371.86508 1672.2098 C 370.44526 1671.9848 369.03916 1671.6699 367.66977 1671.2802 C 366.68986 1671.0012 365.70392 1670.6634 364.73813 1670.2606 C 363.77234 1669.8578 362.82691 1669.3902 361.92953 1668.8505 C 361.03216 1668.3107 360.18273 1667.6985 359.40805 1667.0087 C 358.63337 1666.3189 357.93348 1665.5511 357.33578 1664.6981 C 356.8189 1663.9605 356.40246 1663.156 356.05258 1662.3114 C 355.7027 1661.4668 355.41836 1660.5819 355.16977 1659.6825 C 354.67259 1657.8837 354.31225 1656.0285 353.82602 1654.3231 C 353.04648 1651.5891 352.18122 1648.8866 351.24594 1646.2079 C 350.31066 1643.5292 349.30542 1640.874 348.24985 1638.2352 C 347.59442 1636.5965 346.86031 1634.9904 346.14243 1633.3798 C 345.97039 1632.9936 345.80805 1632.5416 345.62094 1632.1044 C 345.43383 1631.6672 345.22219 1631.2443 344.95297 1630.9169 C 344.7468 1630.6662 344.43352 1630.5216 344.0975 1630.4149 C 343.76148 1630.3082 343.40215 1630.2401 343.10922 1630.1434 C 341.64027 1629.6586 340.19059 1629.1283 338.73032 1628.62 C 335.21819 1627.3974 331.7744 1625.9463 328.35532 1624.4872 C 327.59248 1624.1617 326.82355 1623.7625 326.04672 1623.3876 C 325.2699 1623.0127 324.48544 1622.6612 323.69125 1622.4325 C 323.77487 1622.1336 323.95095 1621.87 324.1561 1621.6219 C 324.36124 1621.3739 324.59492 1621.1413 324.79282 1620.9091 C 325.58082 1619.9842 326.38568 1619.0741 327.17368 1618.1493 C 330.15849 1614.646 333.17128 1611.1669 336.17368 1607.6786 C 336.99278 1606.7268 337.79718 1605.7605 338.63071 1604.8212 C 338.81814 1604.6102 339.07786 1604.3676 339.31235 1604.1083 C 339.54684 1603.849 339.75697 1603.5742 339.84164 1603.2997 C 339.93973 1602.9818 339.79506 1602.4708 339.59946 1601.9618 C 339.40386 1601.4527 339.15755 1600.945 339.04672 1600.6337 C 338.21307 1598.2912 337.45248 1595.9177 336.58188 1593.5887 C 335.02218 1589.4166 333.51175 1585.2038 332.04672 1580.9755 C 330.5817 1576.7471 329.16319 1572.504 327.785 1568.2684 C 331.67642 1569.585 335.53921 1570.9451 339.42563 1572.2372 C 343.31205 1573.5293 347.22089 1574.7532 351.20102 1575.7997 C 353.28443 1576.3474 355.38029 1576.8358 357.48422 1577.286 C 359.58815 1577.7362 361.70042 1578.1472 363.81625 1578.5399 C 368.04792 1579.3254 372.29567 1580.0364 376.52328 1580.8329 L 376.52328 1538.7587 C 376.52328 1534.1436 376.38685 1529.4964 376.45688 1524.8641 C 376.49189 1522.548 376.57925 1520.2355 376.75961 1517.9325 C 376.93997 1515.6295 377.21392 1513.3358 377.62485 1511.0575 C 377.9316 1509.3567 378.33229 1507.6819 378.82016 1506.036 C 379.30803 1504.3901 379.88218 1502.7739 380.53891 1501.1903 C 381.19564 1499.6067 381.93456 1498.0557 382.74789 1496.5419 C 383.56123 1495.0281 384.45038 1493.5507 385.40805 1492.1141 C 386.06464 1491.1293 386.78059 1489.9759 387.57797 1488.8954 C 387.97666 1488.3551 388.39658 1487.8333 388.83774 1487.3602 C 389.27889 1486.8872 389.74185 1486.4631 390.23032 1486.118 C 390.23089 1486.9492 390.28874 1488.0028 390.44711 1489.1122 C 390.60549 1490.2216 390.8649 1491.3868 391.26743 1492.4364 C 391.46869 1492.9612 391.70573 1493.4567 391.98422 1493.9032 C 392.26272 1494.3497 392.58255 1494.7452 392.94907 1495.0712 C 393.31558 1495.3971 393.72787 1495.6522 394.19321 1495.8153 C 394.65854 1495.9784 395.17685 1496.0506 395.7518 1496.0087 C 396.3384 1495.9659 396.92231 1495.737 397.46469 1495.5223 C 398.18068 1495.2386 398.85105 1494.8759 399.46469 1494.4091 C 400.30066 1493.7731 400.99351 1493.0051 401.57797 1492.1512 C 402.16243 1491.2974 402.63742 1490.3571 403.03891 1489.3759 C 403.4404 1488.3946 403.76746 1487.3727 404.05453 1486.3544 C 404.34161 1485.3361 404.58873 1484.3212 404.82993 1483.3563 C 405.59824 1480.2831 406.34394 1477.216 407.29868 1474.2255 C 407.77605 1472.7302 408.30489 1471.2535 408.91586 1469.8055 C 409.52683 1468.3576 410.22071 1466.9383 411.02328 1465.5555 C 411.8773 1464.0841 412.79613 1462.646 413.76938 1461.2411 C 414.74263 1459.8362 415.76981 1458.4636 416.83774 1457.1239 C 417.90567 1455.7842 419.01413 1454.4779 420.15219 1453.202 C 421.29025 1451.9262 422.45684 1450.681 423.64047 1449.4677 C 424.90418 1448.1722 426.20916 1446.9086 427.54868 1445.6766 C 428.88819 1444.4447 430.26283 1443.2446 431.67172 1442.0809 C 433.08062 1440.9173 434.52214 1439.7886 435.99399 1438.6981 C 437.46584 1437.6077 438.96757 1436.5562 440.49594 1435.5438 C 442.02432 1434.5314 443.57958 1433.5593 445.15805 1432.6298 C 446.73652 1431.7002 448.33864 1430.8134 449.96078 1429.9716 C 451.58293 1429.1297 453.22523 1428.3322 454.88461 1427.5829 C 456.544 1426.8336 458.22175 1426.1313 459.91196 1425.4794 C 459.3887 1426.7548 458.83856 1428.0807 458.32211 1429.4403 C 457.80567 1430.7999 457.3228 1432.1939 456.93539 1433.6044 C 456.54799 1435.0148 456.25513 1436.442 456.11899 1437.87 C 456.05092 1438.584 456.02125 1439.2966 456.03891 1440.0087 C 456.05657 1440.7208 456.12141 1441.4315 456.24008 1442.1376 C 456.37701 1442.9522 456.62985 1443.6763 456.97446 1444.3114 C 457.31906 1444.9465 457.7549 1445.493 458.26352 1445.9559 C 458.77214 1446.4189 459.35329 1446.7983 459.98227 1447.0966 C 460.61124 1447.3949 461.28831 1447.6117 461.99399 1447.7528 C 462.69967 1447.8939 463.433 1447.9588 464.17172 1447.9501 C 464.91044 1447.9414 465.65455 1447.8589 466.38266 1447.7079 C 467.11077 1447.5569 467.82405 1447.3375 468.49789 1447.0516 C 469.17174 1446.7657 469.80674 1446.4142 470.38266 1446.0009 C 471.32452 1445.3248 472.15005 1444.5237 472.88852 1443.6395 C 473.62699 1442.7554 474.27748 1441.787 474.86899 1440.7762 C 476.05201 1438.7547 476.99771 1436.5617 477.93149 1434.5223 C 479.44218 1431.223 480.88606 1427.9143 482.43344 1424.6571 C 483.20713 1423.0285 484.00652 1421.4121 484.85336 1419.8173 C 485.7002 1418.2224 486.5958 1416.6481 487.55844 1415.1024 C 488.60547 1413.4213 489.7251 1411.8046 490.91196 1410.245 C 492.09882 1408.6854 493.35273 1407.1836 494.66196 1405.7313 C 495.97118 1404.2791 497.33571 1402.8777 498.74985 1401.5184 C 500.16398 1400.1592 501.62718 1398.8419 503.12875 1397.5614 C 504.59563 1396.3106 506.10212 1395.1064 507.64438 1393.9481 C 509.18664 1392.7899 510.764 1391.6787 512.37485 1390.6161 C 513.98569 1389.5534 515.62995 1388.5391 517.30258 1387.5751 C 518.97522 1386.611 520.67652 1385.6972 522.40414 1384.8348 C 524.13177 1383.9725 525.88614 1383.1609 527.66196 1382.4032 C 529.43777 1381.6455 531.23537 1380.9418 533.05258 1380.2919 C 534.86979 1379.642 536.70664 1379.0458 538.55844 1378.5067 C 540.41024 1377.9676 542.2765 1377.4848 544.1561 1377.0594 C 546.64268 1376.4967 549.1345 1376.0499 551.63852 1375.7001 C 554.14254 1375.3502 556.65941 1375.0964 559.19711 1374.9227 C 560.59252 1374.8177 561.98321 1374.8368 563.38461 1374.8368 C 563.67747 1374.8368 564.01853 1374.8044 564.35336 1374.7997 z " /></g></svg>
