<?xml version="1.0" encoding="UTF-8" standalone="no"?>
<!-- Created with Inkscape (http://www.inkscape.org/) -->

<svg
   width="362.56656mm"
   height="105.83334mm"
   viewBox="0 0 362.56656 105.83333"
   version="1.1"
   id="svg1"
   xml:space="preserve"
   inkscape:version="1.3 (0e150ed6c4, 2023-07-21)"
   sodipodi:docname="wordmark.svg"
   xmlns:inkscape="http://www.inkscape.org/namespaces/inkscape"
   xmlns:sodipodi="http://sodipodi.sourceforge.net/DTD/sodipodi-0.dtd"
   xmlns="http://www.w3.org/2000/svg"
   xmlns:svg="http://www.w3.org/2000/svg"><sodipodi:namedview
     id="namedview1"
     pagecolor="#505050"
     bordercolor="#eeeeee"
     borderopacity="1"
     inkscape:showpageshadow="0"
     inkscape:pageopacity="0"
     inkscape:pagecheckerboard="0"
     inkscape:deskcolor="#505050"
     inkscape:document-units="mm"
     inkscape:zoom="0.28507295"
     inkscape:cx="315.70866"
     inkscape:cy="284.1378"
     inkscape:window-width="1600"
     inkscape:window-height="829"
     inkscape:window-x="-8"
     inkscape:window-y="-8"
     inkscape:window-maximized="1"
     inkscape:current-layer="layer1" /><defs
     id="defs1" /><g
     inkscape:label="Layer 1"
     inkscape:groupmode="layer"
     id="layer1"
     transform="translate(-398.6137,-373.96245)"><path
       style="font-size:61.4278px;line-height:0.9;font-family:'Videand Gothic';-inkscape-font-specification:'Videand Gothic';letter-spacing:0px;text-orientation:upright;stroke-width:3.92545"
       d="m 539.07048,430.62162 6.10192,-46.04917 h 11.95977 l -12.692,83.71837 h -12.36656 l -12.692,-83.71837 h 11.95977 l 6.10192,46.04917 0.48815,3.49843 h 0.65087 z m 23.59403,-34.57757 v -11.4716 h 11.47162 v 11.4716 z m 11.47162,72.24677 h -11.47162 v -62.32097 h 11.47162 z m 38.15727,-83.71837 v 83.71837 h -11.4716 v -4.06795 q -1.46447,1.38311 -2.84757,2.44077 -1.38311,0.9763 -3.01028,1.70855 -1.62718,0.81358 -3.25436,0.81358 -2.35941,0 -4.06795,-1.13902 -1.62718,-1.2204 -2.68485,-3.09165 -1.13902,-1.70853 -1.70852,-3.82388 -0.48817,-2.19667 -0.48817,-4.14929 v -39.70319 q 0,-1.95262 0.48817,-4.06794 0.5695,-2.1967 1.70852,-4.06795 1.05767,-1.70855 2.68485,-2.84756 1.62718,-1.22039 4.06795,-1.22039 1.62718,0 3.25436,0.81359 1.62717,0.81359 2.84757,1.70854 0.81358,0.56952 1.46445,1.22038 0.73224,0.56951 1.54583,1.30176 v -25.54672 z m -11.4716,70.05006 v -34.98436 q 0,-1.38309 -1.13903,-2.52212 -1.05767,-1.22039 -2.27806,-1.22039 -1.22037,0 -2.19669,1.13903 -0.89493,1.05766 -0.89493,2.60348 v 34.98436 q 0,1.62718 0.89493,2.68486 0.89496,1.05766 2.19669,1.05766 1.22039,0 2.27806,-1.05766 1.13903,-1.05768 1.13903,-2.68486 z m 38.6455,-8.62405 h 10.65803 v 7.1596 q -0.24407,4.55609 -1.70854,7.81045 -1.46445,3.25436 -4.5561,5.69513 -2.92892,2.52214 -8.62405,2.52214 -5.61378,0 -8.62405,-2.52214 -3.01028,-2.60348 -4.39338,-5.69513 -0.81359,-1.78989 -1.30174,-3.82387 -0.40681,-2.03397 -0.48817,-4.31202 v -31.3232 q 0.48817,-9.03085 6.34601,-13.91239 2.84755,-2.52213 8.54268,-2.52213 5.61378,0 8.62406,2.6035 3.01029,2.52211 4.39337,5.45103 0.81359,1.78991 1.2204,3.74253 0.48815,1.9526 0.56951,4.23066 v 18.14305 h -19.038 v 13.58695 q 0.0814,3.33572 1.87125,5.28834 0.89496,0.89493 2.35941,0.9763 1.62718,0 2.44077,-0.89496 0.89495,-0.9763 1.22039,-2.19669 0.48815,-1.22037 0.48815,-3.17299 z m -8.37997,-24.48904 v 8.70539 h 8.37997 v -8.70539 q 0,-3.49845 -1.62718,-5.53242 -0.89495,-0.89495 -2.52213,-0.89495 -1.62718,0 -2.44077,0.97632 -0.73223,0.9763 -1.22038,2.19669 -0.24407,0.65086 -0.4068,1.54582 -0.0814,0.81359 -0.16262,1.70854 z m 24.48911,32.2995 q 0,-5.20696 1.30174,-9.03084 1.3831,-3.82387 3.41709,-6.346 2.03396,-2.60348 4.39339,-4.23066 2.44077,-1.70855 4.63746,-2.84758 2.19668,-1.13903 3.66114,-1.95261 1.46447,-0.89494 1.78989,-1.78989 v -6.83416 q 0,-0.81359 -0.0814,-1.87126 0,-1.05766 -0.24407,-1.87125 -0.81359,-1.95262 -2.84758,-1.95262 -1.46445,0 -2.19669,0.97632 -0.65086,0.9763 -0.89494,2.3594 -0.0814,0.65088 -0.1628,1.38311 -0.0814,0.73222 -0.0814,1.54581 v 3.01029 h -11.4716 v -2.68485 q 0,-3.41707 1.13903,-6.42735 1.22037,-3.01028 3.3357,-5.28834 4.31203,-4.88154 10.98347,-4.88154 5.61377,0 9.84442,3.98658 1.95262,1.78991 3.09165,4.47476 1.13903,2.60347 1.13903,5.69512 v 38.23872 q 0,4.23066 0.16262,6.50872 0.24407,2.27806 0.56951,4.31202 h -11.22752 q -0.81359,-0.89495 -0.97632,-2.68484 -0.0814,-1.78989 -0.0814,-2.35941 h -0.81359 q -0.48815,0.81359 -1.22038,1.87126 -0.65088,0.9763 -1.95262,1.95262 -1.13903,0.89493 -2.76621,1.46445 -1.54581,0.65087 -3.25435,0.65087 -1.13902,0 -2.76619,-0.56951 -1.54584,-0.56951 -2.92894,-2.27806 -1.46445,-1.62718 -2.52212,-4.63746 -0.97632,-3.01029 -0.97632,-7.89182 z m 11.22755,-1.70853 q 0,0.56952 0.0814,1.54582 0.16262,0.9763 0.48815,1.87125 0.32544,1.05767 0.9763,1.78991 0.65088,0.65086 1.62718,0.65086 1.95262,0 3.33572,-1.05767 1.46445,-1.13902 1.46445,-2.7662 V 438.188 q -4.23066,1.78989 -6.10191,5.61376 -1.87126,3.82388 -1.87126,8.29863 z m 42.30662,-35.87931 q -0.89495,0 -1.54581,0.48815 -0.65088,0.4068 -1.22039,0.97632 -0.24408,0.32542 -0.56952,0.73222 -0.24407,0.32544 -0.48815,0.81359 v 49.05946 h -11.47162 v -62.32097 h 11.47162 v 5.28833 q 0.24408,-0.0814 1.3831,-1.30174 0.89496,-0.89496 2.1967,-2.03397 1.3831,-1.22039 2.84755,-2.03398 1.46447,-0.81359 2.92892,-0.81359 2.27806,0 3.90524,1.22039 1.70854,1.13901 2.68484,2.84756 1.05767,1.78991 1.54582,3.98658 0.56951,2.19669 0.56951,4.14931 v 51.01208 h -11.55296 v -49.30353 q 0,-1.78991 -0.81359,-2.27806 -0.81359,-0.48815 -1.87126,-0.48815 z m 52.06965,-31.64863 v 83.71837 h -11.47162 v -4.06795 q -1.46447,1.38311 -2.84757,2.44077 -1.38309,0.9763 -3.01027,1.70855 -1.62718,0.81358 -3.25436,0.81358 -2.35942,0 -4.06794,-1.13902 -1.62718,-1.2204 -2.68487,-3.09165 -1.13901,-1.70853 -1.70852,-3.82388 -0.48815,-2.19667 -0.48815,-4.14929 v -39.70319 q 0,-1.95262 0.48815,-4.06794 0.56951,-2.1967 1.70852,-4.06795 1.05769,-1.70855 2.68487,-2.84756 1.62718,-1.22039 4.06794,-1.22039 1.62718,0 3.25436,0.81359 1.62718,0.81359 2.84756,1.70854 0.81359,0.56952 1.46447,1.22038 0.73222,0.56951 1.54581,1.30176 v -25.54672 z m -11.47162,70.05006 v -34.98436 q 0,-1.38309 -1.13903,-2.52212 -1.05766,-1.22039 -2.27804,-1.22039 -1.22039,0 -2.19669,1.13903 -0.89496,1.05766 -0.89496,2.60348 v 34.98436 q 0,1.62718 0.89496,2.68486 0.89493,1.05766 2.19669,1.05766 1.22038,0 2.27804,-1.05766 1.13903,-1.05768 1.13903,-2.68486 z"
       id="text1"
       aria-label="Videand" /><circle
       style="fill:#37abc8;stroke-width:1.65343"
       id="path1"
       cx="451.53036"
       cy="426.87912"
       r="52.916668" /><path
       fill="currentColor"
       d="m 439.44297,404.72565 34.9311,18.08198 q 1.09588,0.54794 1.78081,1.71231 0.68492,1.16437 0.68492,2.39723 0,1.23286 -0.68492,2.39723 -0.68493,1.16437 -1.78081,1.71231 l -34.9311,18.08198 q -0.95888,0.54794 -2.19175,0.54794 -1.23286,0 -2.26025,-0.61643 -1.02738,-0.61643 -1.64382,-1.71231 -0.61642,-1.09588 -0.61642,-2.32874 v -36.16396 q 0,-2.60271 2.12326,-3.97256 2.12326,-1.36984 4.31502,-0.27396 z"
       id="path1-4"
       style="fill:#ffffff;stroke-width:0.136985" /></g></svg>
