<?xml version="1.0" encoding="UTF-8" standalone="no"?>
<!-- Created with Inkscape (http://www.inkscape.org/) -->

<svg
   width="600"
   height="600"
   viewBox="0 0 600 600.00002"
   version="1.1"
   id="svg1"
   inkscape:version="1.3 (0e150ed6c4, 2023-07-21)"
   sodipodi:docname="favicon.svg"
   xmlns:inkscape="http://www.inkscape.org/namespaces/inkscape"
   xmlns:sodipodi="http://sodipodi.sourceforge.net/DTD/sodipodi-0.dtd"
   xmlns="http://www.w3.org/2000/svg"
   xmlns:svg="http://www.w3.org/2000/svg">
  <sodipodi:namedview
     id="namedview1"
     pagecolor="#505050"
     bordercolor="#eeeeee"
     borderopacity="1"
     inkscape:showpageshadow="0"
     inkscape:pageopacity="0"
     inkscape:pagecheckerboard="0"
     inkscape:deskcolor="#505050"
     inkscape:document-units="px"
     inkscape:zoom="0.57014592"
     inkscape:cx="182.40944"
     inkscape:cy="408.66731"
     inkscape:window-width="1600"
     inkscape:window-height="829"
     inkscape:window-x="-8"
     inkscape:window-y="-8"
     inkscape:window-maximized="1"
     inkscape:current-layer="layer1" />
  <defs
     id="defs1" />
  <g
     inkscape:label="Layer 1"
     inkscape:groupmode="layer"
     id="layer1"
     transform="translate(-213.98032,-1275.1122)">
    <rect
       style="fill:#ffffff;stroke-width:40.0317"
       id="rect1"
       width="600"
       height="600"
       x="213.98032"
       y="1275.1122" />
    <path
       style="font-weight:bold;font-size:278.94px;line-height:0.9;font-family:'Neo Gothic';-inkscape-font-specification:'Neo Gothic Bold';letter-spacing:0px;text-orientation:upright;stroke-width:9.61316"
       d="m 373.67309,1480.412 v 46.583 q -8.92608,-11.1576 -20.9205,-17.2943 -11.99442,-6.1367 -25.1046,-6.1367 -12.5523,0 -20.08368,5.5788 -7.25244,5.5788 -7.25244,14.7839 0,8.926 6.69456,15.0627 6.69456,5.8578 16.7364,10.8787 10.04184,5.0209 21.47838,10.3208 11.71548,5.2998 21.75732,12.8312 10.04184,7.2524 16.7364,17.8522 6.69456,10.5997 6.69456,26.4993 0,13.3891 -5.02092,23.9888 -4.74198,10.5997 -13.38912,18.1311 -8.64714,7.5314 -20.64156,11.7155 -11.71548,3.9051 -25.38354,3.9051 -10.32078,0 -20.36262,-1.9525 -9.7629,-1.9526 -17.01534,-4.1841 -9.7629,-3.0684 -15.89958,-3.0684 -4.46304,0 -6.69456,1.1158 l -3.06834,1.1157 v -47.1408 q 11.1576,12.2733 26.4993,18.9679 15.62064,6.6946 31.52022,6.6946 17.29428,0 26.22036,-7.5314 9.20502,-7.5314 9.20502,-19.2469 0,-10.5997 -6.69456,-17.2943 -6.69456,-6.9735 -16.7364,-12.2733 -10.04184,-5.5788 -21.75732,-10.8787 -11.43654,-5.2998 -21.47838,-12.2733 -10.04184,-6.9735 -16.7364,-16.7364 -6.69456,-9.7629 -6.69456,-24.8257 0,-11.4365 4.1841,-20.6416 4.1841,-9.4839 11.71548,-15.8995 7.53138,-6.6946 17.85216,-10.3208 10.32078,-3.6262 22.3152,-3.6262 8.08926,0 16.17852,1.3947 8.08926,1.3947 13.66806,3.3472 3.90516,1.3947 6.9735,1.9526 3.34728,0.5579 5.85774,0.5579 3.06834,0 5.5788,-0.8368 z m 209.76341,180.1953 q 1.3947,3.3472 3.06834,6.1366 1.67364,2.7894 4.74198,5.8578 H 547.1743 q 3.06834,-5.2999 0,-12.5523 l -15.62064,-37.9359 h -75.59274 l -15.62064,37.9359 q -3.06834,7.2524 0,12.5523 H 396.5467 q 2.7894,-3.0684 4.46304,-5.8578 1.67364,-2.7894 3.06834,-6.1366 l 78.94002,-183.2636 h 21.47838 z m -62.7615,-64.7141 -26.77824,-64.993 -27.05718,64.993 z m 136.12302,76.7085 -78.94002,-183.2636 q -1.3947,-3.3473 -3.06834,-6.1367 -1.67364,-2.7894 -4.46304,-5.8577 h 45.46722 q -2.7894,5.2998 0,11.9944 l 51.88284,124.6862 51.6039,-124.6862 q 3.06834,-6.9735 0,-11.9944 h 45.74616 q -3.06834,3.0683 -4.74198,5.8577 -1.67364,2.7894 -3.06834,6.1367 l -78.94002,183.2636 z"
       id="text1"
       aria-label="SAV" />
  </g>
</svg>
